<?xml version="1.0" standalone="no"?>
<!DOCTYPE svg PUBLIC "-//W3C//DTD SVG 20010904//EN"
 "http://www.w3.org/TR/2001/REC-SVG-20010904/DTD/svg10.dtd">
<svg version="1.0" xmlns="http://www.w3.org/2000/svg"
 width="491.000000pt" height="491.000000pt" viewBox="0 0 491.000000 491.000000"
 preserveAspectRatio="xMidYMid meet">
<metadata>
Created by potrace 1.14, written by Peter Selinger 2001-2017
</metadata>
<g transform="translate(0.000000,491.000000) scale(0.100000,-0.100000)"
fill="#000000" stroke="none">
<path d="M2712 4578 c-5 -18 -242 -970 -527 -2115 l-519 -2083 34 -35 34 -35
260 2 260 3 497 2110 498 2110 -37 38 -36 37 -228 0 -227 0 -9 -32z"/>
<path d="M1047 3990 c-60 -15 -110 -30 -112 -32 -1 -1 -191 -277 -421 -613
-431 -628 -497 -739 -497 -825 0 -19 17 -75 39 -125 36 -81 85 -147 483 -655
244 -311 449 -571 456 -578 7 -8 63 -26 125 -42 l112 -28 133 81 c75 45 131
86 128 92 -4 5 -199 288 -435 627 -235 340 -428 623 -428 629 0 6 178 303 395
660 218 357 398 655 400 662 3 7 -44 42 -126 92 -72 44 -134 81 -138 82 -3 0
-55 -12 -114 -27z"/>
<path d="M3624 3938 c-71 -43 -130 -82 -132 -86 -1 -4 178 -304 398 -666 229
-376 399 -665 395 -673 -3 -8 -199 -294 -436 -635 -237 -341 -427 -624 -422
-628 4 -3 65 -41 134 -83 l126 -76 112 29 c62 15 114 30 116 32 2 2 208 264
458 583 447 569 456 581 498 682 l42 103 -44 105 c-38 92 -97 183 -464 720
-386 564 -423 615 -455 624 -19 6 -72 19 -116 29 l-81 19 -129 -79z"/>
</g>
</svg>
